<svg xmlns="http://www.w3.org/2000/svg" id="Capa_1" data-name="Capa 1" viewBox="0 0 2000 2000"><defs><style> .cls-1 { fill: #78438b; } .cls-2 { fill: #b3286c; } </style></defs><g><path class="cls-1" d="M135.76,842.3c11.99,11.62,25.39,19.65,39.93,23.73,14.81,4.33,29.73,6.06,45.81,6.3,15.94-.13,31.76-1.6,47.19-4.32,11.22-2.1,21.69-4.08,31.64-5.93-8.03-5.19-16.46-10.76-25.39-16.56-13.65-9.15-26.54-19.39-38.27-30.64-11.99-11.5-22.08-24.6-30.11-38.8-1.4-2.47-2.68-5.07-3.83-7.66-7.78-1.99-15.43-2.97-22.96-2.97-3.69,0-7.41.11-10.97.61-11.22,1.36-21.18,5.93-30.37,13.96-4.71,3.83-8.29,8.15-11.35,13.47-2.94,5.07-4.72,10.26-5.36,15.69-.89,5.05-.14,10.37,2.03,16.17,2.3,5.7,6.13,11.25,12,16.93Z"></path><path class="cls-1" d="M215.37,765.57c.76,1.49,1.53,3.09,2.42,4.57.77,1.36,1.53,2.72,2.43,4.08,6.88,11.62,15.43,22.35,25.38,31.87,11.22,10.76,23.6,20.51,36.48,29.16,6.64,4.33,13.02,8.54,19.14,12.61,2.55,1.6,5.22,3.33,7.66,4.94-.5-2.1-.9-4.21-1.28-6.43-1.4-6.3-2.68-12.86-3.96-19.77-.25-.98-.38-1.97-.62-2.96-2.94-15.57-4.6-31.75-4.73-47.81-.11-16.44,2.3-32.49,7.02-48.07.77-2.72,1.79-5.43,2.94-8.02-5.86-10.01-13.39-18.29-22.33-24.96-8.93-6.67-19.26-10.25-31.63-10.87-1.28-.13-2.68-.13-4.09-.13-4.59,0-9.19.61-13.77,1.86-5.75,1.6-10.85,4.08-15.31,7.42-4.34,3.08-7.65,7.28-10.33,12.84-2.54,5.56-3.83,12.23-3.83,20.27,0,11.48,1.79,22.23,5.36,31.98.9,2.48,1.92,4.95,3.07,7.42Z"></path><path class="cls-1" d="M319.86,843.65c.77,3.46,1.53,6.81,2.17,10.12.25,1.24.51,2.6.77,3.84,1.77-.36,3.44-.87,5.21-1.49,6.64-2.11,13.15-5.07,19.28-8.64,10.09-5.95,19.12-12.99,27.8-21.38,9.58-9.28,18.5-20.01,26.29-31.88,7.66-11.36,13.26-23.23,16.71-35.21,3.32-11.62,4.21-23.23,2.68-34.35-1.4-10.87-6.13-20.5-14.41-29.4-3.96-4.58-8.42-8.15-13.79-11.01-5.35-2.83-10.71-4.57-16.2-5.3-1.4-.13-2.93-.25-4.34-.25-3.96,0-8.04.73-12.49,2.34-5.88,2.1-11.62,5.93-17.48,11.61-8.43,8.15-15.07,16.93-19.66,26.32-1.15,2.47-2.3,4.94-3.18,7.41-.64,1.61-1.15,3.23-1.66,4.84-.51,1.6-.89,3.08-1.28,4.69-3.57,12.98-5.36,26.32-5.23,39.77.13,15.45,1.66,30.77,4.47,45.72,1.53,7.79,3.06,15.2,4.34,22.24Z"></path><path class="cls-2" d="M613.31,907.58c9.56-19.89,18.99-38.03,28.3-54.41,9.29-16.38,18.02-30.22,26.34-41.37.27-5.1-1.79-9.8-6.23-14.23-4.44-4.31-9.7-8.19-16.1-11.69-6.52-3.36-13.31-6.04-20.67-7.92-7.47-2.03-13.87-2.97-19.4-2.97-2.5,0-5.42.4-8.47,1.22-3.19.94-6.37,1.88-9.57,2.95-3.33,1.07-6.52,2.29-9.43,3.64-3.06,1.33-5.55,2.55-7.48,3.74-16.37,8.34-33.86,19.21-52.44,32.79-18.45,13.56-36.76,28.21-54.93,43.92-18.02,15.59-34.94,31.44-50.89,47.29-15.95,15.85-29.27,30.35-39.81,43.52-.97,0-1.66-.15-2.22-.41-9.56-3.09-18.18-5.9-25.79-8.19-7.63-2.28-15.12-4.3-22.75-5.91-7.49-1.48-15.4-2.68-23.57-3.36-8.34-.8-17.9-1.2-28.58-1.2-16.92,0-33.84,1.35-50.91,4.03-17.07,2.69-33.44,6.58-49.37,11.82-15.96,5.24-30.93,11.68-44.79,19.47-13.88,7.8-26.22,16.66-36.89,26.87-10.69,10.22-19.15,21.64-25.67,34.39-6.37,12.76-9.98,26.86-11.09,42.05-.69,13.69,1.39,26.87,6.23,39.75,4.86,12.91,12.2,24.19,21.93,34.13,9.84,9.8,21.77,17.73,35.92,23.64,14.15,5.92,30.23,9,48.41,9,16.5,0,32.31-2.42,47.57-7.12,15.12-4.7,29.68-11.01,43.55-19.08,14.01-8.06,27.05-17.18,39.11-27.66,12.22-10.48,23.71-21.36,34.55-32.78,10.67-11.42,20.79-22.97,30.1-34.52,9.29-11.68,17.61-22.57,25.24-32.77,13.03,10.88,22.88,22.16,29.4,33.84,6.67,11.7,11.1,23.65,13.19,36.14,2.07,12.36,2.35,24.98.55,37.88-1.81,12.89-4.3,25.92-7.78,39.09-3.32,13.29-7.07,26.73-11.22,40.29-4.17,13.58-7.91,27.27-11.24,41.11-.97,5.37-2.35,10.88-4.02,16.38-1.8,5.65-2.77,11.01-3.04,16.38-.56,6.58,1.24,11.82,5.41,15.85,4.15,4.03,9.57,7.26,16.36,9.68,1.8.66,4.86,1.46,9.16,2.42,4.43.8,9.02,1.74,14.01,2.68,4.85.94,9.44,1.75,13.87,2.41,4.44.54,7.48.94,9.16.94,4.57,0,8.18-1.76,10.82-4.96,2.64-3.23,4.71-7.13,6.25-11.69,1.38-4.44,2.48-8.99,3.19-13.56.55-4.7,1.24-8.19,2.07-10.61,2.92-13.16,7.07-28.75,12.21-46.75,5.14-18.12,11.11-37.73,17.76-58.69,6.66-20.94,14-42.97,22.18-65.94,8.19-22.84,16.79-45.94,25.66-69.31,8.87-23.23,18.04-46.2,27.47-68.64,9.44-22.43,18.87-43.65,28.43-63.53ZM315.52,1027.79c-9.15,12.89-19.42,24.98-30.78,36.14-11.52,11.28-24.28,20.56-38.56,28.07-14.3,7.52-30.51,11.27-48.54,11.27-9.04,0-16.94-1.46-23.59-4.41-6.65-2.97-11.93-6.86-15.81-11.83-3.75-4.98-6.67-10.61-8.61-16.93-1.79-6.3-2.48-12.75-2.07-19.34.84-13.16,5-24.45,12.63-33.99,7.76-9.67,17.33-17.58,28.98-24.04,11.66-6.44,24.83-11.15,39.4-14.23,14.56-2.95,28.84-4.57,43.26-4.57,12.76.13,24.97,1.48,36.63,4.17,11.64,2.55,22.33,7.25,32.18,13.84-7.63,10.87-15.96,22.83-25.11,35.86ZM504.01,950.83c-12.33,27.27-24.69,54.67-36.76,82.34h-.27c-3.33-6.32-6.25-11.82-9.01-16.4-2.77-4.7-5.83-8.85-9.29-12.62-3.33-3.76-7.08-7.53-11.24-11.28-4.17-3.76-9.29-7.93-15.66-12.63.55-1.61,1.38-2.95,2.35-3.89,6.52-8.06,14.7-17.07,24.4-26.99,9.86-9.95,20.26-19.89,31.49-29.83,11.09-9.93,22.33-19.32,33.7-28.2,11.23-8.85,21.36-16.25,30.37-22.03-14.28,27.13-27.59,54.4-40.08,81.54Z"></path><path class="cls-2" d="M1665.91,1046.6v-1.75c0-.93-.14-2.01-.27-3.08-.27-1.07-.56-2.14-.98-3.09-.4-.94-.97-1.47-1.66-1.47-1.25,0-2.64.54-4.17,1.61-1.52,1.07-2.92,2.42-4.03,3.89-1.1,1.35-2.21,2.83-3.32,4.3-1.11,1.47-1.95,2.54-2.49,3.35-6.52,10.07-12.91,20.28-19.15,30.36-6.25,10.07-13.31,19.89-21.07,29.28-1.26,1.49-3.75,4.3-7.23,8.34-3.46,4.15-7.34,8.45-11.64,12.75-4.3,4.43-8.33,8.33-12.35,11.69-4.02,3.34-7.48,5.1-10.25,5.1-3.75,0-5.85-1.76-6.12-5.1-.4-3.36-.55-6.18-.27-8.47.55-10.07,2.64-20.68,6.52-31.44,3.75-10.74,7.63-21.22,11.66-31.15,4.3-10.89,8.74-21.64,13.32-32.25,4.7-10.46,9.29-21.07,13.73-31.83,2.5-5.64,5-11.14,7.34-16.79,2.49-5.52,5.14-11.02,8.18-16.38.71-1.22,1.68-2.69,2.93-4.71,1.24-1.88,2.48-4.03,3.88-6.18,1.25-2.14,2.22-4.3,3.19-6.18.82-2.02,1.24-3.49,1.24-4.7.29-6.58-2.21-12.09-7.34-16.39-5.14-4.43-11.52-7.92-19.15-10.46-7.63-2.56-15.68-4.31-24.27-5.51-8.45-1.07-16.08-1.61-22.46-1.61-32.19,0-62.84,5.63-92.11,17.05-29.12,11.42-54.92,26.74-77.24,45.81-9.31,8.04-17.76,17.19-25.25,27.4-7.5,10.21-14.02,20.82-19.42,31.98-5.42,11.14-9.58,22.56-12.77,34.1-3.18,11.57-4.99,22.43-5.4,32.92-.56,9.54.27,19.75,2.35,31.03,2.09,11.15,6.12,21.49,11.8,30.89,5.83,9.54,13.46,17.33,23.02,23.78,9.44,6.31,21.49,9.39,36.06,9.39,8.73,0,16.65-.79,23.72-2.68,6.93-1.87,13.59-4.29,19.69-7.52,6.1-3.08,11.93-6.85,17.48-11.02,5.56-4.29,11.09-8.86,16.63-13.71,1.4,2.97,5.28,6.32,11.24,10.22,5.97,3.89,12.77,7.66,20.25,11.27,7.49,3.76,14.97,6.85,22.48,9.41,7.36,2.56,13.32,3.77,17.75,3.77,4.98,0,9.99-.82,14.83-2.29,5.01-1.62,9.71-3.62,14.43-6.18,4.57-2.54,8.89-5.37,12.91-8.19,4.01-2.95,7.62-5.91,10.95-8.73,9.29-8.59,17.76-17.99,25.39-28.47,7.62-10.35,14.14-21.37,19.55-32.91,5.42-11.55,9.58-23.25,12.62-35.19,3.06-11.82,4.86-23.24,5.28-34.26ZM1549.4,979.17c-.27,4.69-1.66,10.07-4.3,16.39-2.64,6.31-5.14,11.68-7.34,16.11-2.49,4.98-5.7,11.42-9.44,19.07-3.74,7.66-8.19,15.59-13.18,24.05-4.99,8.32-10.55,16.66-16.5,25.12-6.1,8.32-12.62,15.84-19.41,22.57-6.94,6.58-14.15,12.08-21.64,16.12-7.49,4.15-15.54,6.17-23.71,6.17-4.57,0-8.05-.95-10.42-3.09-2.35-2.01-4.15-4.57-5.26-7.39-1.11-2.95-1.66-6.03-1.8-9.39-.13-3.23-.27-6.05-.27-8.47.55-8.05,2.08-16.79,4.59-26.46,2.48-9.54,6.09-19.2,10.53-28.74,4.57-9.54,10.12-18.95,16.77-28.07,6.67-9,14.15-17.07,22.62-24.06,8.46-6.84,17.75-12.49,28.01-16.66,10.26-4.29,21.49-6.44,33.42-6.3,5.83,0,10.27.93,13.19,2.81,3.04,2.03,4.44,5.37,4.15,10.22Z"></path><path class="cls-2" d="M1893.65,1091.47c3.6-13.03,5.69-25.67,6.23-38.16.29-1.21.43-2.95.43-5.37s-.98-4.17-2.64-5.11c-3.06,0-5.82,1.62-8.33,4.7-2.49,3.1-4.57,5.65-5.97,7.66-1.79,2.95-4.71,7.38-8.73,13.44-4.02,6.05-8.47,12.77-13.31,20.01-4.86,7.25-10.13,14.76-15.83,22.57-5.69,7.79-11.22,14.91-16.65,21.09-5.4,6.31-10.52,11.55-15.52,15.7-4.99,4.17-9.44,6.18-13.18,6.18-1.81,0-3.19-.53-4.16-1.61-.97-1.07-1.68-2.42-2.08-3.89-.42-1.48-.56-2.95-.42-4.7.15-1.75.27-2.95.27-4.03.27-5.24,1.11-11.02,2.78-17.34,1.67-6.17,3.74-12.34,6.11-18.66,2.35-6.32,4.85-12.49,7.48-18.41,2.63-5.91,5.27-11.41,7.76-16.52,2.92-5.92,6.8-13.17,11.23-21.9,4.57-8.73,8.89-17.73,13.18-27,4.29-9.13,8.04-18.26,11.09-27.12,3.19-8.87,4.86-16.27,5.14-22.3.29-3.23.29-6.72,0-10.61-.27-3.89-1.11-7.53-2.77-11.16-1.66-3.49-3.88-6.45-6.79-8.73-2.92-2.27-6.94-3.49-12.21-3.49-7.48,0-16.37,2.14-26.36,6.18-9.98,4.15-20.39,8.73-31.2,13.69-10.83,4.98-21.78,9.54-32.89,13.58-11.22,4.15-21.91,6.18-32.17,6.18-6.79,0-12.34-1.35-16.79-4.04-4.43-2.55-6.37-6.85-6.23-12.63,0-2.02.42-4.17,1.26-6.58.69-2.41,1.93-4.7,3.46-6.71,1.66-2.14,3.61-3.9,5.81-5.37,2.37-1.48,5-2.16,7.92-2.16,2.08,0,3.75.54,5.14,1.62,1.37,1.07,2.63,2.55,3.74,4.15,1.11,1.76,1.95,3.5,2.5,5.11.41,1.75.69,3.23.69,4.43-.27,1.88-1.11,4.04-2.62,6.18-1.55,2.16-2.93,4.17-4.17,5.77.97.81,2.08,1.22,3.19,1.49,1.11.26,2.37.39,3.61.39,4.72,0,9.71-.81,14.7-2.42,5.01-1.47,9.71-3.77,14.15-6.45,4.3-2.82,7.9-6.05,10.69-9.68,2.77-3.62,4.28-7.52,4.44-11.68.27-4.3-.71-8.6-3.2-12.9-2.35-4.29-5.54-8.06-9.71-11.28-4.15-3.36-8.87-6.05-14.15-8.06-5.26-2.02-10.53-3.09-15.66-3.09-13.18,0-24.7,2.68-34.67,8.19-9.98,5.37-18.6,12.37-25.52,20.68-7.07,8.46-12.62,17.59-16.52,27.66-3.87,10.07-6.09,19.61-6.51,28.61-.29,5.39.14,10.88,1.11,16.79.97,5.77,3.04,11.01,6.23,15.85,3.06,4.7,7.22,8.6,12.48,11.82,5.28,3.09,11.94,4.71,19.98,4.71,11.1,0,21.37-1.62,31.08-4.98,9.58-3.49,18.3-7.25,25.94-11.28,7.63-4.17,13.88-7.93,18.85-11.29,4.86-3.49,7.78-5.1,8.74-5.1,2.09,0,2.92,1.2,2.64,3.62,0,.41-.27,1.61-1.1,3.49-.71,1.75-1.67,3.63-2.66,5.65-.96,1.88-1.93,3.76-2.62,5.65-.71,1.75-1.39,3.08-1.8,3.76-2.37,4.84-5.28,10.74-8.74,17.86-3.48,6.99-7.07,14.5-10.67,22.57-3.75,8.06-7.5,16.38-11.37,25.11-3.9,8.73-7.5,17.19-10.68,25.53-3.34,8.19-5.97,15.84-7.91,22.95-2.07,6.99-3.18,13.03-3.46,18.14-.42,9,1.1,16.66,4.85,23.11,3.73,6.44,9.01,11.81,15.66,15.85,6.67,4.15,14.43,7.25,23.44,9.39,9.03,2.02,18.6,3.1,28.58,3.1,8.6,0,16.64-1.49,24.14-4.44,7.48-2.83,14.56-6.59,21.08-11.28,11.79-8.74,22.33-18.54,31.63-29.55,9.29-11.15,17.06-22.83,23.44-35.19,6.37-12.36,11.51-25.13,15.11-38.01Z"></path><path class="cls-2" d="M1206.11,1193.68c14.57-6.18,28.15-14.37,40.79-24.7,12.48-10.35,23.97-22.18,34.39-35.33,10.4-13.17,19.41-26.86,26.78-40.83,7.34-13.84,13.17-27.68,17.47-41.24,4.3-13.57,6.66-25.94,7.21-36.81l.42-6.18c.41-9.95-.55-20.42-3.19-31.16-2.64-10.74-7.21-20.82-13.6-29.82-6.37-9.14-14.7-16.67-24.96-22.71-10.27-5.91-22.74-8.86-37.17-8.86-6.11,0-12.08.13-17.9.66-5.12.4-10.11,1.08-15.1,1.75,0,0-28.39,2.81-36.85,8.99-4.29,3.09,45.98-109.57,46.79-111.08.81-1.49,16.99-30.31-1.74-52.88-6.25-7.51-30.98-20.72-45.68-20.72-1.53,15.72-63.77,144.8-75.85,174.76-12.07,29.93-23.57,59.9-34.67,89.71-5.83,15.32-11.37,30.5-16.92,45.41-5.55,14.91-10.82,30.09-15.81,45.27-1.25,3.62-2.49,7.37-3.73,11.12l-.02.03c-4.85,6.44-9.71,12.36-14.55,17.73-5.69,6.31-10.97,11.41-15.81,15.45-4.86,4.04-9.31,5.91-13.04,5.91-1.38,0-2.64-.41-3.34-1.21-.69-.81-1.24-1.88-1.51-3.09-.29-1.2-.43-2.42-.56-3.49-.15-1.07-.15-2.01-.15-2.69.71-12.35,3.9-25.39,9.44-38.95,5.55-13.56,11.51-27.4,18.03-41.37,6.52-13.97,12.62-28.08,18.03-42.18,5.56-14.23,8.74-28.08,9.44-41.37.27-7.52-.27-14.51-1.66-20.96-1.26-6.44-4.03-12.08-8.05-16.79-4.02-4.71-9.3-8.46-15.95-11.29-6.67-2.81-15.25-4.15-25.79-4.15-12.07,0-23.16,1.35-33.29,4.15-10.13,2.69-19.56,6.46-28.16,11.29-8.74,4.7-16.77,10.35-24.28,16.93-7.48,6.44-14.7,13.69-21.49,21.35.27-7.52-.27-14.5-1.66-21.09-1.38-6.58-4.03-12.22-7.9-17.07-3.88-4.84-9.16-8.73-15.96-11.55-6.79-2.83-15.39-4.16-25.93-4.16-8.74,0-17.89,2.29-27.47,6.71-9.56,4.44-19.14,10.35-28.98,17.6-9.71,7.25-19.29,15.44-28.58,24.58-9.29,9.14-18.03,18.26-25.93,27.54-8.05,9.26-15.4,17.99-21.92,26.6-6.52,8.45-11.93,15.57-16.23,21.48h-.29c0-1.21.98-4.16,2.78-8.6,1.94-4.56,4.3-9.8,7.21-15.98,2.91-6.31,6.25-12.89,9.98-20.15,3.75-7.12,7.21-13.83,10.27-20.27,3.18-6.46,6.1-12.08,8.73-16.92,2.63-4.98,4.58-8.08,5.83-9.54.56-.68,1.38-1.88,2.64-3.64,1.24-1.75,2.49-3.48,3.73-5.24,1.26-1.88,2.5-3.49,3.62-5.11,1.1-1.6,1.66-2.82,1.66-3.48s-.15-1.88-.42-3.22c-6.52-3.91-13.59-7.27-21.22-9.95-7.63-2.69-15.68-4.04-24.28-4.04-7.21,0-13.72,1.07-19.56,3.36-5.68,2.16-11.22,5.24-16.5,9.4-2.5,2.02-6.52,8.07-12.06,18.41-5.55,10.33-11.65,22.69-18.3,37.33-6.67,14.5-13.6,30.36-20.81,47.29-7.34,17.05-14.01,33.17-19.98,48.61-6.09,15.45-11.08,29.15-14.97,40.98-3.88,11.96-5.96,20.15-6.23,24.84-.42,6.46.27,13.03,2.35,19.61,1.95,6.58,5.13,12.49,9.71,17.88,4.57,5.37,10.13,9.65,16.92,13.16,6.79,3.36,14.71,5.1,23.71,5.1,5.97,0,10.27-1.61,12.77-4.56,2.49-3.08,4.72-6.72,6.8-11.15,2.22-5.38,5.97-12.36,11.23-21.23,5.26-8.85,11.51-18.65,18.45-29.41,7.07-10.61,14.83-21.89,23.17-33.84,8.45-11.83,16.92-23.65,25.52-35.33,8.45-11.55,16.92-22.69,25.1-33.3,8.32-10.48,16.08-19.76,23.17-27.81,7.21-8.08,13.44-14.37,18.85-19.08,5.41-4.71,9.29-7.13,11.8-7.13,2.08,0,2.91,1.22,2.63,3.64,0,2.14-.4,4.69-1.24,7.51-.84,2.69-1.81,5.65-2.79,8.47-1.11,2.95-2.21,5.78-3.46,8.59-1.26,2.83-2.23,5.11-3.04,7.12-1.95,4.44-4.73,10.08-8.05,16.93-3.48,6.98-7.07,14.51-11.11,22.57-4.01,8.19-8.03,16.66-12.06,25.52-4.01,8.87-7.62,17.33-10.95,25.52-3.19,8.06-5.97,15.59-8.05,22.57-2.22,6.86-3.33,12.48-3.61,16.93-.55,6.3.56,12.75,3.33,19.46,2.77,6.72,6.93,12.23,12.48,16.52,3.75,2.97,8.87,6.19,15.54,9.54,6.65,3.36,12.89,5.11,18.58,5.11,6.8,0,11.66-2.55,14.71-7.66,3.04-4.56,5.54-9.8,7.76-15.44,2.07-5.77,4.3-11.01,6.52-15.85,5.54-11.42,11.23-22.7,17.19-33.71,5.82-11.02,12.49-22.03,19.69-32.91,1.54-2.16,4.73-6.58,9.45-13.16,4.85-6.46,10.39-14.11,16.92-22.71,6.51-8.6,13.59-17.58,20.93-26.99,7.36-9.28,14.57-17.86,21.63-25.65,7.08-7.8,13.59-14.11,19.56-19.22,6.11-5.1,10.68-7.66,14.01-7.66,1.95,0,3.19.81,3.75,2.56.41,1.61.55,3.09.27,4.3,0,3.89-.97,8.86-2.91,14.91-2.08,6.18-4.44,12.36-7.07,18.68-2.64,6.31-5.28,12.34-7.91,18.39-2.64,5.92-4.86,10.89-6.52,14.64-2.37,4.98-5.56,11.7-9.85,20.3-4.3,8.59-8.47,17.6-12.63,27.12-4.15,9.41-7.76,18.54-10.96,27.14-3.04,8.59-4.7,15.45-4.99,20.55-.55,8.05,1.11,15.58,4.86,22.57,3.73,7.12,8.87,13.16,15.54,18.41,6.65,5.23,14.42,9.39,23.29,12.62,8.89,3.09,18.31,4.69,28.02,4.69,10.82,0,20.4-1.07,28.85-3.36,8.33-2.42,16.64-6.71,24.97-13.03,5.69-4.17,10.95-8.59,16.1-13.43,3.87,6.84,9.84,12.64,17.74,17.47,1.53,1.07,3.61,2.14,6.37,3.48,2.79,1.33,5.7,2.55,8.47,3.62,2.91,1.08,5.82,2.16,8.74,2.97,2.77.8,5.41,1.33,7.63,1.33,5.81,0,11.24-.41,16.36-1.33,5.14-.81,9.58-3.38,13.31-7.4v-.4c7.63,2.69,15.26,4.84,23.02,6.58,7.78,1.75,15.81,2.55,24,2.55,16.09,0,31.48-3.09,46.18-9.27ZM1145.36,1137.79c-4.03,0-7.22-1.2-9.57-3.49-2.37-2.28-4.17-5.09-5.13-8.19-.97-3.23-1.66-6.58-1.81-10.07-.27-3.49-.27-6.31,0-8.6.27-7.25,1.66-16.25,4.15-26.86,2.5-10.74,5.68-21.76,9.58-33.05,3.88-11.27,8.32-22.01,13.32-32.23,5.14-10.07,10.4-18.4,15.81-24.71,2.63-2.69,5.54-5.64,9.14-8.87,3.48-3.36,7.36-6.46,11.38-9.26,4.17-2.95,8.46-5.38,13.04-7.27,4.43-2,9.02-2.95,13.59-2.95,5.68,0,10.4,1.49,14,4.57,3.61,3.08,6.52,6.72,8.47,11.15,2.08,4.3,3.34,9,4.01,13.84.56,4.84.71,9,.56,12.77-.27,7.51-1.95,15.85-4.99,25.11-3.04,9.13-6.79,18.39-11.23,27.68-4.57,9.13-9.71,17.99-15.54,26.58-5.68,8.47-11.52,15.72-17.2,21.76-2.63,2.42-5.82,5.51-9.85,9.28-4.01,3.76-8.45,7.25-13.17,10.61-4.71,3.23-9.71,6.18-14.7,8.47-5,2.55-9.58,3.75-13.88,3.75Z"></path></g><g><path class="cls-2" d="M1915.1,942.82c18.83,0,34.14-15.32,34.14-34.14s-15.31-34.14-34.14-34.14-34.14,15.32-34.14,34.14,15.31,34.14,34.14,34.14ZM1915.1,880.03c15.8,0,28.65,12.85,28.65,28.65s-12.85,28.65-28.65,28.65-28.65-12.85-28.65-28.65,12.85-28.65,28.65-28.65Z"></path><path class="cls-2" d="M1908.56,910.42h10.29c.31,0,.63.03.96.08.62.1,1.18.27,1.7.51.45.21.81.52,1.1.95.29.43.52,1.06.68,1.91.12.63.23,1.45.33,2.4.06,1.05.11,2.16.14,3.41.1,1.18.22,2.29.37,3.3.14,1.16.4,2.13.78,2.9l.3.61h5.43v-1.98l-.44-.33s-.29-.23-.54-1.35c-.21-1.03-.36-2.83-.45-5.26.03-.98,0-2-.1-3.02-.1-1.07-.32-2.1-.62-3-.3-1.03-.79-1.96-1.52-2.83-.26-.28-.56-.53-.9-.76,2.93-1.87,4.39-4.77,4.33-8.64-.03-3.47-1.18-6.12-3.39-7.87-2.14-1.7-5.26-2.48-9.41-2.5h-14.55v37.57h5.51v-16.08ZM1908.56,893.96h9.14c2.08-.06,3.83.36,5.23,1.15.6.34,1.06.85,1.41,1.56.37.72.55,1.66.55,2.78-.03,2.09-.67,3.56-1.97,4.47-1.38.98-3.2,1.48-5.42,1.48h-8.94v-11.43Z"></path></g></svg>