<svg xmlns="http://www.w3.org/2000/svg" xmlns:xlink="http://www.w3.org/1999/xlink" id="Capa_1" data-name="Capa 1" viewBox="0 0 2000 2000"><defs><style> .cls-1 { fill: #fff; } .cls-2 { fill: url(#Degradado_sin_nombre_17); } .cls-3 { fill: #76232f; } .cls-4 { fill: url(#Degradado_sin_nombre_525); } </style><linearGradient id="Degradado_sin_nombre_525" data-name="Degradado sin nombre 525" x1="238.78" y1="1030.6" x2="1768.33" y2="1030.6" gradientUnits="userSpaceOnUse"><stop offset=".32" stop-color="#e30d1c"></stop><stop offset=".45" stop-color="#e5301d"></stop><stop offset=".56" stop-color="#e7491e"></stop><stop offset=".63" stop-color="#e8521f"></stop></linearGradient><linearGradient id="Degradado_sin_nombre_17" data-name="Degradado sin nombre 17" x1="231.67" y1="992.01" x2="1742.09" y2="992.01" gradientUnits="userSpaceOnUse"><stop offset="0" stop-color="#d9291c"></stop><stop offset=".17" stop-color="#d0281d"></stop><stop offset=".43" stop-color="#ba2721"></stop><stop offset=".76" stop-color="#962428"></stop><stop offset="1" stop-color="#76232f"></stop></linearGradient></defs><g><path class="cls-4" d="M1756.06,757.42c-12.85-48.32-35.71-93.85-67.95-135.33-58.29-77.99-136.98-119.21-227.61-119.21-16.81,0-34.32,1.4-52.11,4.16-1.83.29-3.67.68-5.54,1.18l-97.18,26.22c-114.71-29.25-244.99-32.49-378.05-3.6-163.94,35.59-304.12,113.83-403.32,214.46l-246.38,66.49c-13.62,3.67-25.01,12.47-32.06,24.77-7.05,12.3-8.92,26.63-5.27,40.33l143.63,539.84c3.65,13.66,12.37,25.09,24.6,32.22,8.01,4.65,17.12,7.1,26.36,7.1,4.58,0,9.14-.6,13.66-1.81l82.83-22.35c3.22-.87,6.34-1.81,9.42-2.77,147.19,112.4,370.46,159.39,602.13,109.1,284.41-61.74,497.35-251.79,548.75-464.55,39.7-43.27,64.26-98.85,72.3-165.11,7.41-51.95,4.65-102.8-8.21-151.15Z"></path><path class="cls-2" d="M1729.98,724.16c-12.69-47.38-35.26-92.02-67.1-132.69-57.56-76.47-135.26-116.89-224.76-116.89-16.6,0-33.9,1.37-51.46,4.08-1.81.28-3.62.66-5.47,1.16l-95.96,25.71c-113.27-28.68-241.92-31.85-373.33-3.53-161.89,34.89-300.32,111.61-398.27,210.28l-243.3,65.19c-13.45,3.6-24.7,12.23-31.66,24.29-6.97,12.06-8.81,26.11-5.21,39.55l141.83,529.32c3.61,13.4,12.21,24.6,24.29,31.59,7.91,4.56,16.91,6.96,26.03,6.96,4.52,0,9.03-.59,13.49-1.78l81.8-21.92c3.18-.85,6.26-1.77,9.3-2.72,145.35,110.21,365.83,156.28,594.6,106.97,280.85-60.54,491.13-246.89,541.89-455.5,39.2-42.43,63.45-96.93,71.39-161.89,7.32-50.94,4.59-100.8-8.11-148.2Z"></path><g><g><path class="cls-1" d="M419.22,1353.87c-.56,0-1.11-.15-1.6-.43-.73-.42-1.27-1.12-1.49-1.94l-141.81-529.25c-.46-1.71.56-3.46,2.26-3.92l266.87-71.51c15.15-4.06,30.17-6.12,44.64-6.12,29.82,0,58.53,8.73,85.33,25.95,39.73,25.54,65.15,58.14,75.54,96.91,18.17,67.81,3.96,124.96-42.23,169.93l97.23,74.25c26.62,17.62,42.37,36.46,46.65,55.85,4.3,19.52-1.36,39.75-16.82,60.13-15.33,20.2-34.13,33.04-55.89,38.15-4.78,1.12-9.8,1.69-14.92,1.69-18.28,0-38.93-7.27-61.39-21.61-.08-.05-.15-.1-.22-.16l-166.8-127.44,33.07,123.43c12.68,47.31-9.46,78.96-65.79,94.05l-81.8,21.92c-.27.07-.55.11-.83.11ZM504.19,1001.04l44-11.79c44.62-11.96,61.29-36.51,50.96-75.05-7.89-29.46-25.15-43.78-52.75-43.78-8.61,0-18.33,1.44-28.91,4.27l-44,11.79,30.7,114.56Z"></path><path class="cls-1" d="M419.22,1353.87c-.56,0-1.11-.15-1.6-.43-.73-.42-1.27-1.12-1.49-1.94l-141.81-529.25c-.46-1.71.56-3.46,2.26-3.92l266.87-71.51c15.15-4.06,30.17-6.12,44.64-6.12,29.82,0,58.53,8.73,85.33,25.95,39.73,25.54,65.15,58.14,75.54,96.91,18.17,67.81,3.96,124.96-42.23,169.93l97.23,74.25c26.62,17.62,42.37,36.46,46.65,55.85,4.3,19.52-1.36,39.75-16.82,60.13-15.33,20.2-34.13,33.04-55.89,38.15-4.78,1.12-9.8,1.69-14.92,1.69-18.28,0-38.93-7.27-61.39-21.61-.08-.05-.15-.1-.22-.16l-166.8-127.44,33.07,123.43c12.68,47.31-9.46,78.96-65.79,94.05l-81.8,21.92c-.27.07-.55.11-.83.11ZM504.19,1001.04l44-11.79c44.62-11.96,61.29-36.51,50.96-75.05-7.89-29.46-25.15-43.78-52.75-43.78-8.61,0-18.33,1.44-28.91,4.27l-44,11.79,30.7,114.56Z"></path></g><g><path class="cls-1" d="M897.19,1225.8c-.56,0-1.11-.15-1.6-.43-.73-.43-1.27-1.13-1.49-1.95l-141.81-529.25c-.46-1.71.56-3.46,2.27-3.92l343.71-92.1c.27-.07.55-.11.83-.11.56,0,1.11.15,1.6.43.73.43,1.27,1.13,1.49,1.95l16.7,62.33c5.77,21.54,4.52,39.53-3.71,53.47-8.23,13.92-23.52,23.95-45.47,29.83l-113.41,30.39,18.72,69.87,160.5-43.01c.27-.07.55-.11.83-.11.56,0,1.11.15,1.6.43.73.42,1.27,1.12,1.49,1.94l16.81,62.73c11.7,43.67-4.81,71.83-49.08,83.69l-96.88,25.96,19.35,72.22,177.02-47.43c.28-.08.56-.11.83-.11,1.41,0,2.71.94,3.09,2.37l16.7,62.33c11.63,43.41-4.92,71.44-49.18,83.3l-280.1,75.05c-.27.07-.55.11-.83.11Z"></path><path class="cls-1" d="M897.19,1225.8c-.56,0-1.11-.15-1.6-.43-.73-.43-1.27-1.13-1.49-1.95l-141.81-529.25c-.46-1.71.56-3.46,2.27-3.92l343.71-92.1c.27-.07.55-.11.83-.11.56,0,1.11.15,1.6.43.73.43,1.27,1.13,1.49,1.95l16.7,62.33c5.77,21.54,4.52,39.53-3.71,53.47-8.23,13.92-23.52,23.95-45.47,29.83l-113.41,30.39,18.72,69.87,160.5-43.01c.27-.07.55-.11.83-.11.56,0,1.11.15,1.6.43.73.42,1.27,1.12,1.49,1.94l16.81,62.73c11.7,43.67-4.81,71.83-49.08,83.69l-96.88,25.96,19.35,72.22,177.02-47.43c.28-.08.56-.11.83-.11,1.41,0,2.71.94,3.09,2.37l16.7,62.33c11.63,43.41-4.92,71.44-49.18,83.3l-280.1,75.05c-.27.07-.55.11-.83.11Z"></path></g><g><path class="cls-1" d="M1282.22,1122.63c-1.41,0-2.71-.94-3.09-2.37l-141.81-529.25c-.22-.82-.1-1.69.32-2.43.42-.74,1.12-1.27,1.94-1.49l247.87-66.42c.11-.03.23-.05.34-.07,15.03-2.32,29.81-3.5,43.93-3.5,74.72,0,137.28,32.89,185.95,97.75,27.89,35.54,47.64,74.44,58.66,115.57,11.02,41.13,13.33,84.57,6.87,129.1-11.55,95.7-62.67,161.83-151.94,196.49-.11.04-.22.08-.33.11l-247.87,66.42c-.28.08-.56.11-.83.11ZM1418.9,962.77l26.72-6.41c74.84-28.41,98.26-90.09,71.59-188.55-22.26-82.16-62.77-123.82-120.39-123.82-10.59,0-21.96,1.39-33.78,4.14l-26.54,7.12,82.4,307.53Z"></path><path class="cls-1" d="M1282.22,1122.63c-1.41,0-2.71-.94-3.09-2.37l-141.81-529.25c-.22-.82-.1-1.69.32-2.43.42-.74,1.12-1.27,1.94-1.49l247.87-66.42c.11-.03.23-.05.34-.07,15.03-2.32,29.81-3.5,43.93-3.5,74.72,0,137.28,32.89,185.95,97.75,27.89,35.54,47.64,74.44,58.66,115.57,11.02,41.13,13.33,84.57,6.87,129.1-11.55,95.7-62.67,161.83-151.94,196.49-.11.04-.22.08-.33.11l-247.87,66.42c-.28.08-.56.11-.83.11ZM1418.9,962.77l26.72-6.41c74.84-28.41,98.26-90.09,71.59-188.55-22.26-82.16-62.77-123.82-120.39-123.82-10.59,0-21.96,1.39-33.78,4.14l-26.54,7.12,82.4,307.53Z"></path></g></g><g><path class="cls-1" d="M1108.28,1312.52c7.41,27.66,4.44,52.45-8.92,74.36-13.36,21.91-33.78,36.55-61.27,43.91-27.49,7.37-52.41,4.88-74.75-7.47-22.35-12.34-37.23-32.35-44.64-60.01-7.41-27.66-4.58-52.46,8.49-74.39,13.07-21.93,33.55-36.63,61.43-44.1,27.89-7.47,52.95-4.97,75.19,7.49,22.24,12.47,37.07,32.53,44.48,60.2ZM1036.52,1296.08c-10.3-6.62-22.08-8.15-35.34-4.6-13.26,3.55-22.73,10.8-28.42,21.75-5.69,10.95-6.74,23.12-3.15,36.51,3.59,13.39,10.56,23.34,20.93,29.85,10.36,6.51,22.15,7.99,35.37,4.45,13.21-3.54,22.65-10.76,28.3-21.65,5.65-10.89,6.69-23.01,3.12-36.36-3.58-13.34-10.51-23.33-20.81-29.95Z"></path><path class="cls-1" d="M1225.6,1272.56l-15.2-56.74c-4.12-15.38,2.57-25.41,20.07-30.1l26.25-7.03,41.78,155.91c4.12,15.38-2.57,25.41-20.07,30.1-9.72,2.61-18.31,1.31-25.77-3.89l-77.62-54.23,15.28,57.01c4.12,15.38-2.57,25.41-20.07,30.1l-26.25,7.03-47.92-178.85,26.22-7.17c11.2-3.09,20.22-1.63,27.04,4.41l76.28,53.45Z"></path></g></g><g><path class="cls-3" d="M1687.07,528.94c25.04-.02,45.63-19.93,45.55-44.03-.09-23.96-20.92-43.46-46.19-43.22-25.53.24-45.74,19.74-45.5,43.86.25,24.19,20.69,43.42,46.14,43.39M1687.75,448.33c21.15.61,36.29,16.59,35.88,37.87-.4,21.13-16.6,36.38-37.98,35.77-21.06-.6-36.66-16.88-36.22-37.79.45-20.52,17.47-36.44,38.31-35.85"></path><path class="cls-3" d="M1673.6,510.24c2.94-.11,4.17-1.75,4.2-4.41.04-3.44-.06-6.9.11-10.34.12-2.49-.86-5.72,3.18-6.35,2.95-.46,5.41.42,7.1,3.07,2.91,4.56,6,9.03,8.94,13.58,2.31,3.56,4.99,6.03,10.84,2.99-3.19-4.91-5.66-9.28-8.69-13.24-3.23-4.23-3.61-6.87,2.13-9.55,6-2.81,7.83-8.34,6.69-14.64-1.19-6.56-5.92-9.86-12.13-11.13-7.45-1.53-15.08-.58-22.62-.6-2.81-.01-4.46,1.48-4.46,4.25-.01,14.18,0,28.34.05,42.52.01,2.89,1.82,3.98,4.65,3.87M1678.74,467.97c1.31-2.84,4.96-1.39,7.8-1.78,1.78.11,3.83-.05,5.72.4,4.12,1,7.39,3.01,7.22,7.76-.16,4.57-3.06,6.84-7.43,7.56-1.94.32-3.96.34-5.94.24-2.65-.13-6.35,1.09-7.5-1.88-1.5-3.89-1.66-8.44.12-12.3"></path></g></svg>