<svg xmlns="http://www.w3.org/2000/svg" id="Capa_1" data-name="Capa 1" viewBox="0 0 2000 2000"><defs><style> .cls-1 { fill: #007fbb; } </style></defs><path class="cls-1" d="M322.89,1244.29c-25.81-.09-51.38-2.19-76.27-9.52-21.77-6.41-42.24-15.52-59.86-30.2-23.36-19.46-36.4-44.42-40.09-74.5-2.04-16.63-1.07-32.93,5.1-48.61,10.02-25.47,27.97-43.8,52.14-56.13,24.43-12.47,50.26-16.56,77.23-11.15,20.51,4.12,36.22,14.96,44.78,34.7,3.66,8.46,4.95,17.39,4.19,26.53-1.01,12.08-10.15,22.81-21.96,25.92-10.54,2.77-20.6,2.52-29.82-4.45-6.61-4.99-10.71-11.3-12.05-19.43-1.11-6.75-2.41-13.44-4.95-19.83-2.11-5.29-4.81-10.22-9.32-13.86-5.63-4.55-11.74-5.82-18.51-2.5-5.37,2.64-9.63,6.52-13.07,11.32-6.56,9.16-10.23,19.53-12.46,30.45-2.74,13.43-4.14,26.97-2.54,40.7,2.39,20.53,11.43,38.05,25.17,53.04,25.64,27.97,57.6,42.19,95.68,42.53,19.64.17,38.93-1.9,57.52-8.5,44.76-15.88,72.78-47.22,84.93-92.86,5.11-19.2,5.72-38.78,4.53-58.59-2.52-41.9-15.86-80.62-34.03-117.87-15.86-32.53-31.12-65.27-43.07-99.48-5.44-15.57-10.23-31.27-11.99-47.79-4.61-43.41,9.85-78.68,45.21-104.62,21.19-15.55,45.41-23.75,71.46-26.7,16.84-1.91,33.72-2.22,50.51.16,21.66,3.07,41.05,11.05,56,27.81,7.91,8.86,12.27,19.38,13.51,31,2.38,22.31-14.6,41.28-36.97,42.57-17.41,1.01-27.2-7.68-32.61-19.74-3.45-7.7-2.48-15.74-.66-23.67,1.04-4.52,2.95-8.72,5.24-12.78,3.71-6.57,3.17-10.9-1.82-16.44-2.61-2.9-5.8-4.97-9.51-6.16-20.97-6.77-50.61-3.86-68.21,17.66-8.97,10.97-13.48,23.78-14.46,37.67-1.78,25.2,1.77,49.67,11.43,73.15,13.93,33.83,29.49,66.88,46,99.52,14.09,27.86,26.41,56.52,32.16,87.37,12.02,64.49-1.42,122.55-45.83,172.05-24.34,27.12-54.86,44.94-89.05,56.73-22.72,7.84-46.16,12.13-70.15,13.66-7.83.5-15.64.89-23.49.82Z"></path><path class="cls-1" d="M874.45,1237.62c2.82.31,5.65.62,8.47.93.7,1.12,1.46,1.22,2.29.13,3.75-.43,7.33.8,11,1.12.7,1.09,1.45,1.17,2.26.13,3.74-.41,7.32.77,11,1.03.72,1.13,1.48,1.21,2.3.09,12.22.79,24.45,1.45,36.65,2.42,14.82,1.17,29.66,1.87,44.5,2.62,26.48,1.33,52.99,1.86,79.5,2.55,24.53.64,49.05.59,73.56.32,28.32-.31,56.64-1.17,84.93-2.41,25.48-1.12,50.93-2.8,76.36-4.74,30.44-2.33,60.81-5.39,91.12-9.08,39.48-4.81,78.78-10.74,117.8-18.43,50.69-9.99,100.77-22.31,149.12-40.87,21.42-8.22,42.24-17.72,61.7-29.98,11.61-7.32,22.44-15.59,31.63-25.87,4.04-4.52,7.51-9.44,10.3-14.81,8.25-15.95,7.56-31.67-1.42-47.1-4.38-7.54-10.09-14-16.38-19.99-1.13-1.08-2.74-1.78-3.04-3.57l-.09.08c1.44-.64,2.76-.06,4.06.44,23.13,8.86,45.75,18.74,66.21,32.93,9.12,6.32,17.63,13.32,24.5,22.16,4.49,5.77,8.13,12,10.05,19.07,3.24,11.94.95,23.1-5.36,33.53-7.45,12.31-18.14,21.38-29.83,29.4-22.38,15.36-47.14,25.86-72.53,35.01-39.39,14.2-79.94,24.09-120.92,32.37-33.87,6.85-67.99,12.18-102.24,16.6-24.3,3.14-48.66,5.76-73.08,7.84-29.82,2.55-59.65,4.7-89.54,6.1-25.29,1.18-50.58,1.82-75.88,2.46-21.71.55-43.41.54-65.11.34-29.12-.27-58.25-.85-87.34-2.37-25.06-1.32-50.13-2.77-75.15-4.72-29.43-2.29-58.78-5.37-88.09-9.03-30.3-3.78-60.43-8.53-90.48-13.87-.98-.17-1.91-.61-2.86-.92,0-.63.01-1.27.02-1.9Z"></path><path class="cls-1" d="M859.07,903.61c4.01-4.41,7.43-8.27,10.96-12.03,11.92-12.69,27.06-18.38,44.03-19.71,7.2-.56,14.43-.58,21.62.84,20.75,4.09,33.91,16.41,40.02,36.47,3.14,10.32,3.89,20.96,3.14,31.61-2.12,30.39-11.16,58.67-27.19,84.6-16.58,26.82-39.25,45.99-70.17,54.35-16.93,4.58-34.11,4.81-51.38,2.4-4.62-.64-4.7-.78-5.65,4.13-4.38,22.66-9.76,45.13-11.85,68.2-.81,8.95-5.77,15.46-14.17,18.67-9.74,3.72-19.64,3.69-29.36-.45-2.63-1.12-4.85-2.81-6.79-4.9-2.92-3.16-4.1-6.62-2.94-11.02,4.86-18.44,8.57-37.16,12.14-55.86,3.72-19.51,7.48-39.02,11.2-58.53,4.17-21.88,8.53-43.73,12.61-65.62,2.06-11.04,3.43-22.22,5.62-33.24,3.03-15.21,5.17-30.43,5.02-46-.09-9.05,6.17-16.12,15.03-17.87,5.9-1.16,11.89-2,17.88-2.52,4.65-.41,9.2.67,13.35,2.98,6.61,3.67,8.92,8.62,7.58,16.06-.39,2.15-1.51,4.19-.7,7.46ZM925.48,952.59c.08-1.8.19-3.61.24-5.41.25-8.67-.39-17.25-3.43-25.44-5.9-15.91-19.54-20.95-34.42-12.81-5.16,2.82-9.56,6.6-13.45,11-9.84,11.13-16.5,24.1-21.97,37.79-11.4,28.55-14.55,59.07-21.44,88.7-.52,2.23.4,3.62,2.52,4.76,17.24,9.35,40.69,7.03,56.07-5.64,8.03-6.62,14.2-14.7,18.88-23.93,11.01-21.68,15.43-45.01,17-69.02Z"></path><path class="cls-1" d="M1056.5,897.4c5.65-4.69,10.63-9.59,16.55-13.38,24.21-15.52,49.99-17.85,76.65-8.04,15.14,5.57,25.66,18.65,24.27,39.45-1.25,18.69-5.03,36.97-8.09,55.37-4.01,24.15-8.29,48.25-12.32,72.4-.86,5.14-1.2,10.37-1.68,15.56-.38,4.14-1.87,7.76-4.55,10.93-8.29,9.81-30.06,13.9-41.89,3.93-4.67-3.93-6.92-8.64-5.35-14.89,5.35-21.24,8.15-42.97,11.9-64.51,3.17-18.18,6.26-36.38,9.22-54.6,1.16-7.12,1.99-14.26.75-21.54-1.83-10.68-8.07-16.13-18.98-16.26-6.39-.07-12.35,1.56-17.98,4.35-11.85,5.85-21.25,14.23-27.21,26.29-9.33,18.87-15.19,38.85-19.19,59.41-4.1,21.07-8.09,42.17-11.28,63.41-2.02,13.4-10.62,21.65-24.27,23.81-6.44,1.02-12.78,1.2-18.83-1.84-8.02-4.03-10.57-9.46-8.55-18.16,6.68-28.75,11.62-57.84,16.99-86.84,5.48-29.6,10.9-59.2,16.23-88.83,2.95-16.39,5.9-32.77,6.06-49.54.09-10.2,5.88-16.26,16.07-17.86,4.56-.71,9.12-1.45,13.71-1.92,6.56-.67,12.84.41,18.51,3.98,5.57,3.51,7.14,7.31,5.86,13.75-4.02,20.27-8.06,40.55-12.05,60.82-.31,1.55-.36,3.16-.54,4.74Z"></path><path class="cls-1" d="M707.13,1044.32c-1.37,1.64-2.77,3.25-4.1,4.91-8.71,10.89-18.35,20.64-30.53,27.85-27.92,16.52-79.28,5.27-87.83-40.68-2.39-12.87-1.26-25.59,1.37-38.26,7.03-33.94,21.32-64.24,44.89-89.96,16.52-18.03,36.28-30.33,60.58-34.65,19.1-3.39,38.01-2.94,56.43,3.79,3.74,1.37,7.04,1.61,10.96.21,7.55-2.7,14.75-1.52,20.5,4.5,3.33,3.49,4.88,7.58,3.79,12.66-7.17,33.15-13.34,66.5-19.29,99.88-4.09,22.92-7.56,45.95-8.7,69.24-.2,4.18-2.17,7.2-5.25,9.72-8.99,7.34-24.61,8.8-34.73,3.21-5.94-3.28-9.46-7.95-8.69-15.13.6-5.57,1.09-11.16,1.62-16.73-.34-.19-.67-.37-1.01-.56ZM635.68,1007.63c0,2.01-.12,4.02.02,6.02.65,8.84,1.76,17.59,6.09,25.55,4.8,8.83,13.14,12.81,23.14,11.49,10.78-1.43,18.96-7.3,26.09-14.93,9.94-10.64,16.24-23.32,20.32-37.18,3.92-13.29,6.67-26.84,9.11-40.48,3.15-17.56,6.49-35.09,9.83-52.62.43-2.23.53-3.83-2.09-4.71-14.17-4.73-28.28-5.66-42.3.49-14.07,6.17-23.64,17.07-30.94,30.13-13.21,23.66-18.31,49.46-19.3,76.23Z"></path><path class="cls-1" d="M1491.04,1056.81c-3.72,3.93-6.32,6.98-9.23,9.7-9.25,8.65-20.65,12.95-32.75,15.69-16.65,3.76-33.1,3.59-49.05-3.16-18.41-7.8-26.91-23.33-24.09-43.08,4.44-31.01,11.35-61.57,16.72-92.41,2.41-13.83,5.71-27.49,7.12-41.51,1.25-12.47,8.71-21.38,22.79-23.4,4.19-.6,8.32-1.22,12.54-1.05,4.12.16,7.89,1.44,11.33,3.68,6.81,4.44,8.84,9.09,6.74,16.97-9.83,36.89-15.37,74.68-23.28,111.97-1.83,8.61-2.81,17.46-.69,26.3,2.75,11.43,9.21,16.34,20.87,15.29,11.83-1.07,21.09-7.26,29.22-15.42,5.6-5.63,9.7-12.23,12.61-19.62,7.24-18.38,11.89-37.48,15.95-56.74,3.35-15.91,6.2-31.91,8.1-48.07.33-2.79.55-5.6.6-8.41.29-14.23,9.41-22.33,20.36-25.18,6.49-1.69,13.19-3.74,20.17-1.98,2.56.65,5.05,1.41,7.3,2.74,5.83,3.45,9.09,7.7,6.78,16.01-8.75,31.56-14.18,63.84-19.82,96.06-3.15,17.99-6.03,36.03-7.99,54.19-.53,4.98-.59,10.03-.54,15.04.07,6.66-2.88,11.54-8.22,15.18-9.95,6.78-25.5,6.42-35.27-.66-5.81-4.22-8.44-9.93-8.27-18.13Z"></path><path class="cls-1" d="M1740.78,1268.42c-13,5.93-26.6,10.24-40.2,14.46-48.25,14.97-97.59,25.05-147.43,32.94-29.36,4.65-58.84,8.41-88.39,11.51-20.77,2.18-41.58,4-62.43,5.38-21.84,1.45-43.7,2.62-65.56,3.7-49.61,2.44-99.24,2.5-148.87,1.86-25.3-.33-50.59-1.5-75.87-2.64-28.89-1.3-57.74-3.27-86.54-5.87-34-3.07-67.93-6.82-101.75-11.53-51.75-7.21-103.08-16.53-153.76-29.32-28.84-7.28-57.29-15.83-85.09-26.46-2.2-.84-4.65-1.25-6.7-3.4,4.8.29,8.92,1.9,13.14,2.96,38.01,9.49,76.39,17.17,115.02,23.68,32.49,5.47,65.1,10.02,97.8,13.95,21.13,2.54,42.32,4.63,63.51,6.63,28.6,2.7,57.24,4.81,85.89,6.66,22.24,1.44,44.54,2.11,66.8,3.16,50.21,2.38,100.45,2.34,150.69,2.06,24.91-.14,49.83-.61,74.72-1.6,30.09-1.2,60.18-2.84,90.23-4.8,31.46-2.04,62.87-4.85,94.21-8.38,59.49-6.7,118.67-15.44,177.1-28.72,11.16-2.54,22.27-5.29,33.41-7.94.02.58.05,1.15.07,1.73Z"></path><path class="cls-1" d="M1600.63,1085.19c-9.02.38-18.82-.32-28.5-2.35-5.82-1.22-11.02-3.81-15.37-7.86-7.5-6.98-7.21-15.87.9-22.2,7.83-6.11,16.5-6.85,25.51-2.84,13.67,6.07,27.76,7.88,42.28,3.89,9.76-2.68,17.24-8.43,21.43-17.94,4.86-11.04,2.13-22.77-7.1-30.48-3.1-2.59-6.55-4.64-10.02-6.67-9.36-5.49-18.75-10.92-28.07-16.48-5.2-3.09-9.94-6.81-14.26-11.06-13.68-13.46-16.64-29.25-10.07-46.99,4.14-11.16,11.56-20.11,19.8-28.48,13.47-13.67,30.37-19.91,48.83-22.73,12.53-1.91,25.14-2.56,37.81-1.34,5.22.5,10.36,1.3,15.28,3.15,4.25,1.6,7.78,4.16,10.17,8.11,4.9,8.09,2.15,16.75-6.67,20.25-7.84,3.12-15.75,2.97-23.39-.71-9.45-4.55-19.17-5.68-29.29-2.88-14.38,3.98-24.95,16.85-25.01,30.45-.04,9,3.44,16.38,10.33,22.15,3.25,2.72,6.87,4.89,10.48,7.08,9.1,5.53,18.22,11.04,27.24,16.7,3.39,2.13,6.66,4.51,9.77,7.04,13.94,11.34,18.51,25.91,13.79,43.08-7.03,25.58-24.41,41.93-48.3,51.77-14.89,6.13-30.7,7.69-47.56,7.33Z"></path><path class="cls-1" d="M1336.35,901.23c5.7-5.91,10.25-10.96,15.62-15.15,8.05-6.29,17.21-10.28,26.86-13.27,2.11-.65,4.28-1.14,6.54-.78,6.52,1.03,12.01,3.57,14.28,10.36,2.28,6.8-1.18,11.66-5.89,15.86-5.99,5.34-13.23,8.57-20.88,10.35-15.09,3.52-25.69,12.69-33.9,25.24-8.72,13.33-13.44,28.23-16.86,43.59-5.98,26.87-10.65,53.96-13.3,81.38-.6,6.22-3.74,11.07-8.83,14.43-10.91,7.22-22.61,7.97-34.43,2.68-8.81-3.94-11.22-9.82-8.54-19.12,4.42-15.29,6.37-31.06,9.33-46.63,4.95-26.03,9.5-52.14,14.1-78.24,1.81-10.29,3.16-20.63,3.07-31.13-.1-11.73,5.15-18.48,16.54-20.91,5.87-1.25,11.85-2.17,17.9-2.11,5.36.05,10.34,1.52,14.55,4.96,3.48,2.84,5.4,6.37,4.44,11.1-.39,1.94-.34,3.97-.6,7.41Z"></path><path class="cls-1" d="M1200.14,1079c-2.97.23-6.34-.07-9.59-1.35-8.96-3.54-13.91-12.12-11.64-21.22,6.65-26.7,10.28-53.97,15.27-80.98,3.61-19.52,6.95-39.1,9.06-58.87.6-5.61.74-11.21.79-16.83.11-12.22,5.63-18.64,17.52-20.45,4.56-.69,9.1-1.51,13.66-2.25,3.61-.59,7.16-.57,10.71.57,8.66,2.79,13.32,9.33,12.01,18.27-1.4,9.52-3.6,18.92-5.26,28.4-6.34,36.15-13.46,72.17-18.85,108.48-1.36,9.13-2.62,18.26-3.48,27.45-.62,6.65-4.58,10.99-10.05,14.12-6.07,3.46-12.69,4.9-20.15,4.65Z"></path><path class="cls-1" d="M1245.98,805.18c6.16-.27,12.18.89,17.48,4.63,5.95,4.21,8.5,10.02,7.42,17.2-3.28,21.71-25.08,34.39-45.59,26.6-10.97-4.16-15.59-13.26-12.37-24.55,4.13-14.47,17.45-24.72,33.06-23.89Z"></path><path class="cls-1" d="M1814.48,902.52c.07,16.35-12.15,28.94-28.27,29.1-16.21.16-29.29-12.74-29.29-28.91,0-15.76,13.05-28.54,29.07-28.46,15.87.08,28.42,12.53,28.49,28.27ZM1799.94,919.99c1.78,1.25,2.57-.43,3.32-1.35,6.3-7.72,7.24-16.48,3.65-25.42-3.5-8.7-10.43-13.57-19.89-14.19-9.6-.63-18.13,4.74-22.16,13.52-4.11,8.97-2.47,19.85,4.07,26.93,7.57,8.19,20.11,9.91,29.04,3.88,1.11-.75,3.15-1.27,2.06-3.46l-.08.09Z"></path><path class="cls-1" d="M874.45,1237.62c0,.63-.01,1.27-.02,1.9-7.12-.47-13.98-2.2-20.79-4.17,6.94.76,13.96.75,20.8,2.27Z"></path><path class="cls-1" d="M1740.78,1268.42c-.02-.57-.05-1.15-.07-1.73,3.46-1.53,7.14-2.22,10.89-2.72-3.55,1.66-6.86,3.82-10.82,4.45Z"></path><path class="cls-1" d="M885.21,1238.68c-.83,1.09-1.59.99-2.29-.13.79-.46,1.56-.51,2.29.13Z"></path><path class="cls-1" d="M898.47,1239.93c-.81,1.04-1.56.96-2.26-.13.78-.5,1.54-.56,2.26.13Z"></path><path class="cls-1" d="M911.76,1241.06c-.81,1.11-1.58,1.04-2.3-.09.79-.45,1.55-.49,2.3.09Z"></path><path class="cls-1" d="M676.05,1258.39c-.38.05-.55.09-.71.07-.06,0-.11-.15-.16-.23.22.04.45.08.87.15Z"></path><path class="cls-1" d="M1748.1,1032.11c-.29-.13-.58-.26-.86-.4.2-.11.4-.23.6-.34.06.27.12.54.18.82,0,0,.09-.08.09-.08Z"></path><path class="cls-1" d="M1800.02,919.9c-4.34.59-7.15-1.17-8.96-5.2-1.14-2.54-3.01-4.74-4.46-7.15-1.1-1.83-2.7-2.32-4.63-1.89-2.27.51-1.62,2.46-1.69,3.94-.12,2.61-.02,5.22-.14,7.83-.08,1.71-1.18,2.37-2.85,2.36-1.67,0-2.7-.61-2.7-2.41,0-9.64,0-19.29.02-28.93,0-1.86,1.24-2.31,2.83-2.3,4.42.05,8.86-.19,13.25.19,4.99.43,7.6,2.88,8.51,7.13.94,4.37-.22,8.05-4.38,10.2-3.19,1.65-2.83,3.01-1.3,5.47,2.21,3.56,5.14,6.71,6.39,10.84,0,0,.08-.09.08-.09ZM1785.06,900.85c1.38-.11,2.99-.09,4.54-.39,2.65-.51,4.28-2.14,4.18-4.96-.11-2.87-1.97-4.26-4.63-4.5-2.17-.2-4.37-.11-6.56-.11-.78,0-1.76,0-2.08.8-1,2.47-.88,5.15-.27,7.6.58,2.34,2.99,1.17,4.82,1.55Z"></path></svg>