<svg xmlns="http://www.w3.org/2000/svg" id="Capa_1" data-name="Capa 1" viewBox="0 0 2000 2000"><path d="M499.83,1355.47c0,3.92-3.25,7.52-8.28,7.85-8.28.65-16.55,1.31-25.19,1.31s-16.92-.66-25.19-1.31c-5.04-.66-8.28-3.93-8.28-7.85,0-1.3.36-2.62,1.08-3.92,7.2-13.74,11.52-31.4,11.52-64.76v-61.82c0-4.57-3.95-8.17-9-8.17h-97.89c-5.05,0-9,3.6-9,8.17v61.49c0,21.26,1.44,36.31,4.68,48.08,1.44,6.22,3.96,11.77,6.84,16.68.71,1.31,1.08,2.62,1.08,3.93,0,3.92-3.24,7.19-8.28,7.85-8.27.98-16.92,1.3-25.19,1.3s-16.92-.32-25.19-1.3c-5.05-.65-8.64-4.25-8.64-8.18,0-.98.36-2.29,1.08-3.27,7.56-13.74,11.51-31.4,11.51-65.09v-129.18c0-27.8-4.31-46.45-9-58.54-.71-1.96-1.8-4.25-2.88-6.21-.72-.98-.72-2.29-.72-3.6,0-3.6,2.88-7.52,8.29-8.17,8.28-.99,16.91-1.31,25.19-1.31s17.29.32,25.19,1.63c5.05.65,8.28,3.93,8.28,7.85,0,1.31-.36,2.29-1.08,3.6-7.56,14.07-11.16,31.06-11.16,64.76v24.19c0,4.59,3.95,8.18,9,8.18h97.89c5.05,0,9-3.6,9-8.18v-24.19c0-27.47-4.68-46.45-9.36-58.22-.72-2.29-1.8-4.25-2.52-6.21-.72-1.31-.72-2.3-.72-3.6,0-3.93,2.88-7.53,8.28-8.18,8.64-.98,17.27-1.31,26.27-1.31,8.28,0,16.56.33,24.12,1.31,5.03.65,7.92,4.25,7.92,7.85,0,1.31-.36,2.62-1.08,3.93-7.56,13.74-11.16,31.07-11.16,64.43v129.51c0,21.25,1.8,36.3,4.68,47.75,1.8,6.54,4.32,12.1,6.84,17.01.72,1.3,1.08,2.62,1.08,3.92"></path><path d="M594.43,1354.82c0,4.24-3.95,8.18-9,8.18-7.92.65-15.83,1.3-23.75,1.3s-16.19-.65-24.12-1.3h-.36c-5.04,0-9-3.93-9-8.18,0-1.31.36-2.29,1.08-3.6,8.28-16.68,12.6-38.92,12.6-69.67v-13.41c0-35.32-3.6-55.28-11.88-71.62-.72-1.31-1.08-2.29-1.08-3.6,0-3.6,3.24-6.55,8.64-8.84,6.84-2.95,24.12-8.5,37.43-8.5,1.8,0,3.24,0,4.68.32,5.4.66,8.99,4.26,8.99,8.83,0,.99-.36,1.97-.72,2.95-6.47,16.35-6.84,35-6.84,58.22v35.65c0,32.7,4.32,53.64,12.6,69.99.72.98.72,2.29.72,3.27M531.8,1127.52c0-15.05,13.32-27.15,29.52-27.15s29.88,12.1,29.88,27.15-13.32,27.14-29.88,27.14-29.52-12.1-29.52-27.14"></path><path d="M905.75,1354.49c0,4.25-3.6,8.17-8.99,8.17-7.92.99-15.84,1.31-24.12,1.31s-15.84-.32-24.11-1.31c-5.05,0-9-3.92-9-7.85,0-1.3.36-2.62,1.08-3.6,8.28-17,12.6-39.25,12.6-69.66v-21.58c0-16.68-1.8-45.79-27.35-45.79-9.72,0-18.36,3.93-26.28,10.14-13.32,10.14-20.51,25.51-20.51,41.21v16.02c0,32.38,4.32,53.64,12.95,69.66.36,1.31.72,2.29.72,3.27,0,4.25-3.96,8.17-9,8.17-7.92.99-16.2,1.31-24.11,1.31s-16.2-.32-24.12-1.31c-5.05,0-9-3.92-9-8.17,0-1.31.36-2.29.72-3.27,8.64-17,12.95-39.25,12.95-69.66v-20.6c0-16.69-1.44-46.77-27.71-46.77-13.68,0-25.92,7.85-35.63,18.97-6.84,7.19-10.43,16.36-10.43,26.16v22.24c0,32.38,4.31,53.64,12.59,69.66.36.98.72,1.96.72,3.27,0,4.25-3.95,8.17-9,8.17-7.92.99-15.83,1.31-24.11,1.31s-15.84-.32-24.12-1.31c-5.04-.65-8.64-4.25-8.64-8.49,0-1.31.36-2.3,1.08-3.6,7.92-17,12.23-38.92,12.23-69.01v-13.74c0-34.99-3.6-55.27-12.23-71.3-.72-.97-.72-2.29-.72-3.27,0-3.93,3.24-7.19,8.64-9.16,6.48-2.95,23.4-8.51,36.71-8.51,1.8,0,3.6,0,5.4.33,5.04.66,8.64,4.26,8.64,8.51,0,.98-.36,2.29-.72,3.27-2.52,7.19-4.32,14.72-5.04,23.22v.34c0,.32.36.65.72.65s.72,0,1.08-.33c14.75-18.65,36.71-36.95,63.35-36.95,28.07,0,39.59,13.41,43.91,37.28.36,1.3,1.43,1.96,2.52,1.96.72,0,1.44-.32,2.16-.98,15.12-18.96,37.43-38.26,64.42-38.26,38.52,0,46.43,25.18,46.43,67.37v39.58c0,32.38,4.32,53.64,12.6,69.66.72,1.31.72,2.29.72,3.27"></path><path d="M1090.7,1354.82c0,4.25-3.96,8.18-8.99,8.18-7.56.97-15.48,1.3-23.4,1.3-3.96,0-7.56,0-11.52-.33-5.04-.32-8.64-3.92-8.64-8.5v-16.68c0-1.63-1.44-2.29-2.88-2.29-.72,0-1.44,0-1.81.66-15.84,15.7-37.43,27.14-64.78,27.14s-46.79-13.08-49.67-38.27c-.36-2.62-.36-4.9-.36-7.52,0-55.27,70.18-61.81,107.97-79.8,3.95-1.96,5.75-5.88,5.75-10.13,0-.98,0-2.29-.36-3.27-2.52-12.1-15.47-25.18-34.55-25.18-28.07,0-44.27,16.35-55.42,34.34-1.09,1.63-2.89,2.62-4.69,2.62-2.88,0-5.75-1.96-5.75-5.24v-30.08c0-4.25,2.52-8.51,6.84-10.79,16.56-8.83,31.68-16.35,61.91-16.35,42.47,0,76.66,22.24,76.66,69.66v37.28c0,32.71,4.32,53.64,12.6,69.99.71.99,1.08,2.29,1.08,3.27M1028.43,1314.59c6.12-6.54,9.72-15.05,9.72-23.55v-23.54c0-1.63,0-3.93-.36-6.22,0-1.63-1.43-2.94-2.88-2.94-.36,0-1.08.33-1.44.65-31.31,17.33-72.34,26.49-72.34,53.97v2.61c1.43,15.38,11.88,19.63,24.47,19.63,17.64,0,31.68-9.49,42.83-20.61"></path><path d="M1163.01,1281.56c0,32.38,4.32,53.64,12.95,69.66.36.98.72,1.96.72,3.27,0,4.25-3.95,8.17-9,8.17-7.92.99-16.19,1.31-24.11,1.31s-16.19-.32-24.12-1.31c-5.04,0-9-3.92-9-8.17,0-1.31.36-2.29.72-3.27,8.64-17,12.95-39.25,12.95-69.66v-106.94c0-35-3.95-55.28-12.23-71.3-.72-1.31-.72-2.29-.72-3.6,0-3.6,2.88-6.86,8.28-8.83,6.84-2.95,23.75-8.51,37.07-8.51,1.8,0,3.6,0,5.4.33,5.03.65,8.63,3.92,8.63,8.18,0,.97-.36,2.29-.71,3.27-6.48,17.99-6.84,38.27-6.84,64.1v123.3Z"></path><path d="M1365.63,1354.82c0,4.25-3.96,8.18-8.99,8.18-7.56.97-15.48,1.3-23.4,1.3-3.96,0-7.56,0-11.52-.33-5.04-.32-8.64-3.92-8.64-8.5v-16.68c0-1.63-1.44-2.29-2.88-2.29-.72,0-1.44,0-1.81.66-15.84,15.7-37.43,27.14-64.78,27.14s-46.79-13.08-49.67-38.27c-.36-2.62-.36-4.9-.36-7.52,0-55.27,70.18-61.81,107.97-79.8,3.95-1.96,5.75-5.88,5.75-10.13,0-.98,0-2.29-.36-3.27-2.52-12.1-15.47-25.18-34.55-25.18-28.07,0-44.27,16.35-55.42,34.34-1.09,1.63-2.89,2.62-4.69,2.62-2.88,0-5.75-1.96-5.75-5.24v-30.08c0-4.25,2.52-8.51,6.84-10.79,16.56-8.83,31.68-16.35,61.91-16.35,42.47,0,76.66,22.24,76.66,69.66v37.28c0,32.71,4.32,53.64,12.6,69.99.71.99,1.08,2.29,1.08,3.27M1303.36,1314.59c6.12-6.54,9.72-15.05,9.72-23.55v-23.54c0-1.63,0-3.93-.36-6.22,0-1.63-1.43-2.94-2.88-2.94-.36,0-1.08.33-1.44.65-31.31,17.33-72.34,26.49-72.34,53.97v2.61c1.43,15.38,11.88,19.63,24.47,19.63,17.64,0,31.68-9.49,42.83-20.61"></path><path d="M1539.44,1175.59c4.68.98,8.28,4.91,8.28,9.16,0,1.3-.36,2.94-1.43,4.26-9.36,14.38-17.29,29.76-23.04,43.17,0,0-68.03,190.35-134.97,222.07-1.44.65-2.88.97-4.32.97-5.04,0-9-3.92-10.8-10.13l-.36-1.63c-.72-5.56-1.44-11.13-1.44-16.68,0-5.89.72-12.1,1.8-18.32.72-4.91,4.32-9.49,9.72-9.81,20.16-.99,34.92-12.76,50.75-36.31,2.52-3.6,3.95-7.84,3.95-12.1,0-2.94-.71-5.88-2.16-8.84l-48.95-108.9c-6.47-14.39-12.95-29.44-22.68-44.49-.72-1.3-1.08-2.94-1.08-4.25,0-3.92,3.6-7.52,9-8.18,6.83-.97,16.19-1.31,25.55-1.31,8.28,0,16.55.34,22.68,1.31,5.04.66,8.64,3.92,8.64,8.51,0,.98-.36,1.96-.72,2.95-2.17,6.21-2.88,12.75-2.88,19.3,0,12.43,2.88,25.17,6.84,37.61l26.99,64.1c.36.99,1.44,1.31,2.16,1.31s1.44-.32,1.8-.98v-.33l.72-1.3c.72-1.96,1.8-4.25,2.52-6.21l24.47-59.2c4.68-11.12,6.84-22.89,6.84-33.36,0-8.18-1.43-15.7-3.6-21.59-.36-.65-.71-1.63-.71-2.62,0-3.92,3.96-7.19,9.36-8.18,4.68-.97,11.52-1.31,18.36-1.31s14.04.34,18.36,1.31h.36Z"></path><path d="M1725.13,1354.82c0,4.25-3.96,8.18-8.99,8.18-7.57.97-15.48,1.3-23.4,1.3-3.96,0-7.56,0-11.52-.33-5.04-.32-8.64-3.92-8.64-8.5v-16.68c0-1.63-1.44-2.29-2.88-2.29-.72,0-1.44,0-1.8.66-15.84,15.7-37.44,27.14-64.79,27.14s-46.79-13.08-49.67-38.27c-.36-2.62-.36-4.9-.36-7.52,0-55.27,70.18-61.81,107.97-79.8,3.95-1.96,5.75-5.88,5.75-10.13,0-.98,0-2.29-.36-3.27-2.52-12.1-15.47-25.18-34.55-25.18-28.07,0-44.27,16.35-55.42,34.34-1.09,1.63-2.89,2.62-4.69,2.62-2.88,0-5.75-1.96-5.75-5.24v-30.08c0-4.25,2.52-8.51,6.84-10.79,16.56-8.83,31.68-16.35,61.91-16.35,42.47,0,76.66,22.24,76.66,69.66v37.28c0,32.71,4.32,53.64,12.6,69.99.71.99,1.08,2.29,1.08,3.27M1662.86,1314.59c6.12-6.54,9.72-15.05,9.72-23.55v-23.54c0-1.63,0-3.93-.36-6.22,0-1.63-1.43-2.94-2.88-2.94-.36,0-1.08.33-1.43.65-31.32,17.33-72.35,26.49-72.35,53.97v2.61c1.43,15.38,11.88,19.63,24.47,19.63,17.64,0,31.68-9.49,42.83-20.61"></path><path d="M1075.28,932.58c255.24,0,462.18-53,462.18-118.32,0-12.24-7.25-24.02-20.71-35.12,48.01,17.31,76.19,38.33,76.19,61.01,0,59.21-192.02,107.22-428.94,107.22-103.93,0-199.28-9.25-273.51-24.63,56.59,6.32,119.1,9.84,184.8,9.84"></path><path d="M520,928.96c-22.02,0-40.9-2.5-56.64-7.5-15.73-5-28.59-11.66-38.6-19.96-10.02-8.29-17.38-17.86-22.11-28.73-4.72-10.88-7.07-22.32-7.07-34.32,0-10.3,2.14-19.84,6.44-28.54,4.28-8.73,10.08-16.3,17.38-22.74,7.29-6.43,15.71-11.51,25.31-15.22,9.58-3.73,19.66-5.58,30.24-5.58,15.73,0,27.96,3.93,36.69,11.79,8.73,7.88,13.08,17.95,13.08,30.25,0,4.87-1.87,9.67-5.58,14.38-3.71,4.71-10.15,7.07-19.3,7.07-4.02,0-8.09-1.65-12.24-4.92-4.13-3.29-6.65-7.5-7.49-12.66-2.57-17.73-8.74-26.75-18.45-27.03-2.87.28-5.79,1.57-8.8,3.86-3.01,2.29-5.73,5.73-8.15,10.3-2.44,4.57-4.37,10.06-5.79,16.5-1.43,6.45-2.14,13.94-2.14,22.54s2.14,17.66,6.43,26.38c4.3,8.72,10.3,16.57,18.01,23.6,7.73,7,16.81,12.65,27.24,16.94,10.44,4.28,21.97,6.43,34.54,6.43,17.16,0,32.18-2.71,45.05-8.15,12.87-5.44,23.53-12.72,31.96-21.89,8.44-9.15,14.81-19.72,19.1-31.74,4.29-12.01,6.44-24.6,6.44-37.75,0-14.88-1.43-28.39-4.29-40.55-2.86-12.16-6.38-23.38-10.52-33.67-4.13-10.3-8.57-20.09-13.28-29.39-4.73-9.29-9.1-18.67-13.1-28.1-6.58-15.16-11.95-29.18-16.08-42.05-4.16-12.87-6.23-24.73-6.23-35.6,0-11.44,2.29-22.17,6.87-32.2,4.57-10.01,11.2-18.72,19.95-26.17,8.71-7.42,19.22-13.28,31.52-17.58,12.3-4.29,26.17-6.44,41.62-6.44,13.72,0,24.95,1.72,33.68,5.16,8.71,3.43,15.51,7.59,20.37,12.44,4.87,4.86,8.16,9.81,9.88,14.8,1.72,5,2.57,8.94,2.57,11.81,0,6.58-2.29,12.86-6.87,18.87-4.57,6-11.73,9-21.43,9-6.59,0-11.89-2.29-15.88-6.86-4.01-4.57-6.01-9.29-6.01-14.15,0-4.3.5-7.94,1.51-10.94.99-3.01,2.2-5.65,3.65-7.94,2.28-4,1.49-7.94-2.36-11.8-3.86-3.85-10.81-5.79-20.81-5.79-7.43,0-13.87,1.29-19.3,3.86-5.45,2.57-10.02,6.08-13.73,10.5-3.73,4.43-6.44,9.52-8.16,15.25-1.71,5.72-2.57,11.72-2.57,18.01,0,16.01,2.63,30.61,7.93,43.76,5.29,13.17,11.51,27.18,18.66,42.05,4.3,9.43,8.8,18.73,13.52,27.89,4.72,9.16,8.99,18.59,12.86,28.32,3.87,9.71,7.02,19.73,9.45,30.03,2.43,10.3,3.64,21.3,3.64,33.03,0,20.02-3.85,38.62-11.58,55.77-7.72,17.16-18.65,32.1-32.81,44.85-14.16,12.71-31.26,22.67-51.28,29.81-20.01,7.15-42.33,10.72-66.93,10.72"></path><path d="M825.77,671.76c9.44-2.88,17.83,4.47,16.52,11.54-1.83,8.66-4.72,22.03-9.17,46.15l-4.74,25.7c-3.67,21.5-5.77,39.59-5.77,47.2,0,6.56-8.64,11.27-17.56,11.53-9.17.26-17.04-5.24-16.51-11.8.25-4.46,1.04-10.49,2.09-15.99-10.74,14.68-24.65,30.67-45.1,30.67-21.76,0-43.26-14.16-43.26-44.05,0-12.05,7.08-59.79,45.36-90.19,6.29-4.72,21.51-14.68,45.89-14.68,12.32,0,20.45,2.62,28.05,5.51l4.19-1.59ZM805.85,688.8c-4.72-1.57-10.49-3.4-16.78-3.4-39.85,0-50.34,56.12-50.34,77.63,0,17.81,4.98,30.67,18.1,30.67,7.59,0,17.29-4.19,26.22-17.3,7.08-9.71,11.53-24.93,15.99-51.14l6.82-36.45Z"></path><path d="M979.41,711.36c0,26.75-12.32,61.37-33.04,81.81-14.17,14.17-33.56,23.08-55.59,23.08-4.98,0-11.27,0-19.13-1.57-.79,5.23-1.83,9.69-2.89,14.95-1.05,5.51-2.09,10.74-3.14,16-1.57,8.64-2.38,15.99-2.9,20.72-.78,8.38-8.38,14.93-19.66,14.41h-1.82c-8.67,0-17.05-5.77-15.74-12.05,2.09-7.87,4.19-18.09,6.3-28.06.52-2.89,1.3-5.77,1.57-8.66,0-.26.25-1.32.79-2.62.25-.79.25-1.83.52-2.63l-.27.27,16.54-85.22c1.04-5.52,1.57-10.23,2.36-14.68.51-3.67,1.29-7.35,2.09-12.08.77-1.57.77-3.14.77-3.92,2.11-10.76,2.37-19.41,2.11-24.91.26-4.98,3.41-11.81,11.55-12.85,3.39-.26,6.55-.78,9.17-1.32,9.17-1.56,17.83,3.94,17.3,10.76-.78,3.66-1.57,7.07-2.36,10.49,4.19-6.04,9.18-12.07,15.21-16.53,3.16-2.36,12.84-8.9,30.68-8.9,24.13,0,39.6,15.2,39.6,43.52M887.11,738.36c-4.46,14.7-8.39,37.49-10.49,48.77-.79,1.57-1.04,2.89-1.04,5.25h-.79c4.98,2.62,11,5.5,19.13,5.5,16.26,0,25.19-9.18,29.9-14.93,14.16-17.06,18.62-48.25,18.62-63.98s-4.98-27.8-17.31-27.8c-13.9,0-28.85,17.57-38.02,47.2"></path><path d="M997.74,692.22c5.25-27.8,7.34-41.7,7.1-49.54-.27-6.03,2.6-12.86,12.05-13.91,2.62-.25,5.5-.53,8.13-1.04,9.43-1.32,19.41,3.92,17.81,11.02-1.57,7.59-2.86,14.14-5.48,27-1.33,7.35-2.9,14.95-4.21,22.54q-.27.79,0,.27c3.68-4.98,7.85-9.19,13.91-12.85,11.25-7.35,22.8-8.66,31.19-8.66,19.39,0,38.01,8.13,38.01,29.11,0,5.51-1.05,12.32-3.14,25.69l-10.23,58.48c-1.06,6.57-1.83,14.42-2.36,19.15-.53,7.87-9.45,13.88-20.45,13.88-9.17,0-17.3-6.54-15.73-13.35,1.3-4.99,2.88-12.34,4.44-21.26,3.16-19.13,6.56-40.11,9.97-59.26.79-4.45,1.58-9.69,1.58-13.63,0-9.7-3.15-17.05-13.89-17.05-8.92,0-18.63,4.99-26.48,13.39-3.95,4.19-11.29,18.08-17.05,41.67-1.58,6.84-7.6,38.29-9.96,54.81-1.32,8.66-10.49,14.95-22.02,14.95-8.93,0-16-6.56-13.89-13.11,1.31-4.98,3.93-17.03,7.32-35.4l13.38-72.89Z"></path><path d="M1163.15,749.64c-4.7,26.23-6.81,41.68-7.59,50.62-.54,7.6-9.96,12.84-19.92,12.84h-2.11c-8.38.26-14.94-7.08-14.15-13.63,0-.27.25-.8.25-1.31,1.32-5.52,3.15-12.85,4.98-23.59l4.46-25.7c6.28-34.61,8.64-51.67,8.38-61.11-.25-6.28,2.62-13.88,12.6-14.42,3.67-.51,6.28-1.04,9.19-1.57,8.9-1.83,16.51,4.72,15.98,11.55-.25,1.04-.53,2.88-.53,4.19-1.04,4.71-2.35,11.02-3.92,19.66l-7.63,42.47ZM1184.15,634.54c0,8.64-7.87,22.02-23.07,22.02-8.93,0-18.1-4.19-18.1-13.89,0-8.13,7.35-21.51,23.59-21.51,9.19,0,17.57,4.46,17.57,13.38"></path><path d="M1189.9,716.6c2.62-14.16,3.42-22.81,3.16-28.85-.54-6.56,3.94-13.1,13.1-14.42,2.62-.25,4.99-.51,6.82-.78h-.27c9.44-1.85,18.34,3.41,17.83,9.7-.26.79-.26,3.4-.78,5.24-.27,1.3-.78,2.11-1.06,3.41,4.21-5.49,9.19-10.74,15.21-14.94,4.45-2.88,9.96-5.25,15.22-7.07,9.68-2.9,17.56,4.44,15.19,11.78-2.36,6.82-12.32,11.55-22.28,13.91h.25c-9.95,2.62-23.32,13.63-30.41,39.58-3.94,13.63-9.97,47.99-11.28,65.04-.8,7.87-9.44,14.15-19.68,13.89h-1.29c-9.17,0-17.58-6.03-15.75-13.1,1.31-4.46,2.63-9.19,3.14-12.6l12.85-70.79Z"></path><path d="M1298.19,751.47c-2.89,13.38-3.93,19.41-3.93,25.18,0,9.71,3.41,17.82,13.63,17.82,4.46,0,18.11-2.09,29.11-19.66h-.25c5.49-9.71,11.79-34.08,15.47-54.28,2.88-15.21,4.19-25.43,4.45-31.97.26-7.62,6.54-14.69,16.26-16.54.26,0,1.3,0,1.83-.27l-.53.54c1.32-.78,3.68-1.31,4.99-1.31,8.12-1.05,17.03,4.72,15.99,10.49-3.67,13.11-7.6,30.16-11.79,54.27-6.56,36.18-8.91,53.74-8.91,63.45v2.1c.25,7.08-8.13,12.84-17.57,12.84-9.97,0-18.6-6.56-18.1-14.14v-3.67c-3.14,4.45-6.55,8.13-11.27,11.53-11.8,7.87-28.06,9.19-32.25,9.19-19.92,0-37.75-9.46-37.75-28.59,0-3.67.53-7.34,2.09-17.04l13.1-69.49c1.06-4.98,1.59-9.17,1.86-12.33.51-6.8,4.45-14.67,14.68-16.5h-.53c.53-.27,1.58-.27,2.62-.27.27,0,1.04-.26,1.32-.26h-.53c.78-.26,2.1-.53,3.41-.53,8.91-1.04,18.09,5.25,16.78,12.06-2.62,10.49-3.93,15.47-5.77,24.38-.27,1.32-.79,3.16-1.05,4.72l-7.34,38.28Z"></path><path d="M1420.35,747.8c-8.13-4.71-23.6-14.16-23.6-30.94,0-14.15,9.69-27.27,22.54-37.49,13.38-9.97,33.84-11.81,44.59-11.81,7.86,0,13.37.53,18.09,1.83h-.26c8.64,1.83,13.11,9.45,10.48,15.48-1.83,4.19-7.07,6.29-12.84,6.29-3.4,0-6.55-.53-8.9-1.83h.24c-3.92-1.84-8.37-3.16-12.84-3.16-16.78,0-25.69,12.59-25.69,22.55,0,12.34,8.38,17.05,17.05,22.02l13.11,8.13c8.37,4.98,21.23,12.85,21.23,28.32,0,11.27-5.78,26.22-22.28,38.28-15.47,11.27-34.88,12.06-46.94,12.06-7.07,0-14.42-.79-19.39-1.83-9.19-2.36-15.47-9.17-13.91-14.95,3.42-8.66,13.91-11.79,22.02-7.87h-.26c4.98,2.36,11.02,4.18,20.2,4.18,17.31,0,26.49-10.99,26.49-21.49s-6.31-14.41-12.86-18.34l-16.24-9.45Z"></path><path d="M1132.81,981c-146.84-1.9-278.4-18.35-368.38-42.89,78.27,32.3,215.32,54.82,371.68,56.84,165.41,2.16,309.83-19.18,386.18-52.53-90.51,25.37-231.36,40.63-389.48,38.57"></path><path d="M1545.13,669.87c10.84,0,19.94,8.56,19.94,19.78s-9.1,19.99-19.94,19.99-20.05-8.55-20.05-19.99,9.15-19.78,20.05-19.78M1545.13,706.71c9.21,0,16.34-7.33,16.34-17.07s-7.13-16.85-16.34-16.85-16.43,7.34-16.43,16.85,7.13,17.07,16.43,17.07M1537.37,678.11h8.99c5.53,0,8.14,2.17,8.14,6.65,0,4.19-2.66,5.96-6.12,6.32l6.65,10.26h-3.88l-6.33-10h-3.83v10h-3.62v-23.23ZM1540.98,688.42h3.77c3.2,0,6.12-.16,6.12-3.83,0-3.09-2.66-3.56-5.1-3.56h-4.79v7.39Z"></path><path d="M208.72,638.85h0c31.51-7.88,56.12-32.49,64-64l.08.31c7.83,31.32,32.29,55.78,63.62,63.61l.31.08-.31.08c-31.32,7.83-55.78,32.29-63.62,63.61l-.08.31-.08-.31c-7.83-31.32-32.29-55.78-63.61-63.61l-.31-.08Z"></path><path d="M936,1589.74h0c31.51-7.88,56.12-32.49,64-64l.08.31c7.83,31.32,32.29,55.78,63.62,63.61l.31.08-.31.08c-31.32,7.83-55.78,32.29-63.62,63.61l-.08.31-.08-.31c-7.83-31.32-32.29-55.78-63.61-63.61l-.31-.08Z"></path><path d="M85.1,392.07h0c22.56-5.64,40.17-23.25,45.81-45.81l.05.22c5.61,22.42,23.11,39.93,45.54,45.54l.22.05-.22.06c-22.43,5.61-39.93,23.11-45.54,45.54l-.05.22-.05-.22c-5.6-22.42-23.11-39.93-45.54-45.54l-.22-.06Z"></path><path d="M95.33,885.62h0c17.53-4.38,31.21-18.06,35.59-35.59l.04.17c4.36,17.42,17.96,31.02,35.38,35.38l.17.04-.17.04c-17.42,4.36-31.02,17.96-35.38,35.38l-.04.17-.04-.17c-4.35-17.42-17.96-31.02-35.38-35.38l-.17-.04Z"></path><path d="M1791.28,638.85h0c-31.51-7.88-56.12-32.49-64-64l-.08.31c-7.83,31.32-32.29,55.78-63.62,63.61l-.31.08.31.08c31.32,7.83,55.78,32.29,63.62,63.61l.08.31.08-.31c7.83-31.32,32.29-55.78,63.61-63.61l.31-.08Z"></path><path d="M1914.9,392.07h0c-22.56-5.64-40.17-23.25-45.81-45.81l-.06.22c-5.61,22.42-23.11,39.93-45.54,45.54l-.22.05.22.06c22.43,5.61,39.93,23.11,45.54,45.54l.06.22.05-.22c5.6-22.42,23.11-39.93,45.54-45.54l.22-.06Z"></path><path d="M1904.67,885.62h0c-17.53-4.38-31.21-18.06-35.59-35.59l-.04.17c-4.36,17.42-17.96,31.02-35.38,35.38l-.17.04.17.04c17.42,4.36,31.02,17.96,35.38,35.38l.04.17.04-.17c4.36-17.42,17.96-31.02,35.38-35.38l.17-.04Z"></path></svg>