<svg xmlns="http://www.w3.org/2000/svg" id="Capa_1" data-name="Capa 1" viewBox="0 0 2000 2000"><defs><style> .cls-1 { fill: #fff; } .cls-2 { fill: #007faa; } </style></defs><path class="cls-2" d="M1114.63,859.11s29.07-104.04,140.06-104.66c0,0-111.3-.55-82.85-104.59,0,0-29.07,104.04-140.06,104.66,0,0,111.3.55,82.85,104.59Z"></path><path class="cls-1" d="M486.71,1293.76v.28c.22-.15.44-.27.66-.42l-.66.13Z"></path><path class="cls-1" d="M431.1,1317.99l-5.95-.63-1.31.27,3.97.42c.88.23,1.99.21,3.3-.06Z"></path><path class="cls-1" d="M573.81,840.15s.01-.01.02-.02c0,0,0,.01-.01.02,0,0,0,0,0,0Z"></path><path class="cls-1" d="M616.96,819.69l1.34.96v-.61s-.01,0-.01,0l-.65.13c-.44.09-.66-.07-.67-.48Z"></path><path class="cls-1" d="M520.46,1229.32c0-.4.2-.86.63-1.35-.44.09-.65.53-.63,1.35Z"></path><path class="cls-1" d="M599.11,817.23l.66-.14h0s.64-.75.64-.75c-.44.09-.65.25-.65.43,0,.21-.22.36-.65.45Z"></path><path class="cls-1" d="M378.38,1285.92l-1.02-2.05c.15.46.29.94.44,1.4.18.22.32.48.57.66Z"></path><path class="cls-2" d="M956.54,947.93c-98.17-59.32-161.89,122.58-192.24,195.4,15.47-77.53,41.61-151.88,73.61-224.38,0,0,15.14-36.76,15.14-36.76,11.21-27.66,19.78-38.6,15.92-47.63-13.51-25.06-53.39-24.41-70.51-13.43-11.41,7.32-22.11,34.69-29.37,51.91-37.33,85.99-121.79,286.75-85.77,383.88,3.81,10.26,8.12,25.51,29.86,25.51,34.91,0,38.27-21.55,38.64-48.4,7.24-30.04,20.08-58.06,29.77-82.91,29.03-63.34,88.66-175.24,109.1-169.1,8.29,2.49-12.79,62.82-18.89,89.76-15.51,49.06-25.56,92.36-23.58,132.13,2.31,75.58,92.35,77.39,82.37,47.42-42.75-128.36,80.43-263.15,25.94-303.39Z"></path><path class="cls-2" d="M1136.76,919.64c8.81-38.1-64.04-41.57-78.76-13.88-25.51,60.42-97.25,243.36-58.13,301.8,14.56,21.76,44.41,26.58,58.21,17.68,3.01-1.94.2-7.95.06-14.4-2-19.67,1.1-38.84,7.36-64.24,19.5-76.47,43.09-152.58,71.25-226.96Z"></path><path class="cls-2" d="M1426.98,859.53c3.44,4.47,5.94,10,7.46,16.84,7.33,51.35-35.13,88.14-46.49,192.83,0,0-9.32,44.76,7.62,88.5,0,0,6.47,19.31-28.73,15.97-41.81-3.97-56.25-40.22-55.45-80.21,1.42-71.38,41.55-152.94,44.91-198.66-.61-24.78-28.26,17.58-34.19,23.52-53.07,68.69-86.76,159.29-114.75,246.87-12.91,40.4-65.83,47.96-78.49.75-5.5-20.5,5.73-70.14,13.24-102.48,14.03-63.83,33.51-126.93,59.14-187.14,15.82-25.32,67.57-24.68,79.89,3.25,4.97,12.77-18.83,41.71-49.75,160.74,26.74-66.93,78.2-203.29,153.27-197.83,19.34,1.41,33.74,5.89,42.32,17.05Z"></path><path class="cls-2" d="M1770.17,783.88c6.53-20.83-38.63-33.02-63.47-25.73-11.61,3.4-21.29,11.41-24.81,22.98,0,0-27.85,91.85-32.03,102.18-8,19.79-25.23,59.25-37.74,80.56-22.08,37.63-59.5,133.9-91.81,110.83-5.32-4.8-11.65-16.16-7.57-38.14,5.3-28.6,14.86-65.51,24.66-96.43,19.16-60.5,28.84-85.92,34.31-102,5.01-14.73,5.94-19.76-.95-26.83-16.53-16.56-47.15-17.36-66.38-4.19-12.44,9.48-14.45,26.87-21.02,40.11-18.83,51.15-34.78,102.97-46.86,156.17-21.53,72.28.4,135.25,82.67,115.91,43.78-14.39,68.78-63.92,93.07-101.66-25.25,77.69-68.52,215.96-106.34,237.2-42.29,23.75-59.7-8.05-43.44-46.51,13.07-30.91,37.19-33.8,24.48-49.07-3.64-4.37-8.75-6.75-13.98-4.67-10.91,4.35-23.61,22.49-33.47,42.71-14.8,30.35-23.78,75.97,21.57,93.55,145.27,57.18,240.34-272.1,271.05-388.31,11.33-42.87,28.61-88.51,38.05-118.66Z"></path><path class="cls-2" d="M372.79,1120.37s-118.58,31.79-124.69-88.14c0,0,5.45,120.11-112.4,153.07,0,0,118.58-31.79,124.69,88.14,0,0-5.45-120.11,112.4-153.07Z"></path><path class="cls-2" d="M600.52,784.07c44.19,0,71.52,17.09,80.47,53.26,9.82,39.7-30.06,112.39-37.54,98.04-5.79-11.12,9.73-39.68-1.42-87.1-4.4-18.71-24.76-33.43-41.61-30.03-23.81,4.81-39.23,38.86-37.37,61.59,9.55,116.86,79.36,206.09,66.27,322.06-10.35,91.73-123.56,161.21-231.19,146.2-53.83-7.51-84.05-38.16-83.51-74.66.73-49.27,38.06-94.3,79.36-112.84,25.01-11.23,43.71-16.94,54.96-12.44,11.18,4.47,8.84,7.72-1.77,16.08-22.03,17.36-68.66,51.61-73.33,88.76-2.7,21.46,4.02,40.63,22.06,53.21,38.43,26.81,97.9-1.65,116.72-47.74,45.88-112.35-84.48-292.02-50.82-382.87,21.25-57.35,83.57-91.52,138.71-91.53Z"></path><g><path class="cls-2" d="M1823.2,853.09c17.15,0,31.1-13.95,31.1-31.1s-13.95-31.1-31.1-31.1-31.1,13.95-31.1,31.1,13.95,31.1,31.1,31.1ZM1823.2,795.89c14.39,0,26.1,11.71,26.1,26.09s-11.7,26.1-26.1,26.1-26.1-11.71-26.1-26.1,11.71-26.09,26.1-26.09Z"></path><path class="cls-2" d="M1817.24,823.58h9.37c.28,0,.57.02.88.08.56.09,1.08.24,1.55.46.41.19.73.47,1,.86.27.39.48.97.62,1.74.11.57.21,1.32.3,2.19.06.95.1,1.97.13,3.11.09,1.07.2,2.09.34,3.01.13,1.05.36,1.94.71,2.64l.28.56h4.95v-1.81l-.4-.3s-.27-.21-.5-1.23c-.19-.94-.33-2.58-.41-4.8.03-.89,0-1.82-.09-2.75-.09-.97-.29-1.91-.57-2.74-.27-.94-.72-1.79-1.38-2.58-.24-.25-.51-.48-.82-.7,2.67-1.71,4-4.35,3.94-7.87-.03-3.16-1.07-5.57-3.08-7.17-1.95-1.55-4.79-2.26-8.57-2.28h-13.25v34.22h5.02v-14.65ZM1817.24,808.58h8.33c1.89-.06,3.49.33,4.76,1.05.55.31.97.77,1.29,1.42.33.66.5,1.51.5,2.53-.02,1.91-.61,3.24-1.79,4.07-1.25.89-2.92,1.34-4.94,1.34h-8.15v-10.42Z"></path></g></svg>